<?xml version="1.0" standalone="no"?>
<!DOCTYPE svg PUBLIC "-//W3C//DTD SVG 20010904//EN"
 "http://www.w3.org/TR/2001/REC-SVG-20010904/DTD/svg10.dtd">
<svg version="1.0" xmlns="http://www.w3.org/2000/svg"
 width="512.000000pt" height="512.000000pt" viewBox="0 0 512.000000 512.000000"
 preserveAspectRatio="xMidYMid meet">
<metadata>
Created by potrace 1.14, written by Peter Selinger 2001-2017
</metadata>
<g transform="translate(0.000000,512.000000) scale(0.100000,-0.100000)"
fill="#000000" stroke="none">
<path d="M1490 4454 c-1112 -407 -1720 -1591 -1400 -2726 211 -752 811 -1346
1569 -1554 378 -103 804 -103 1182 0 397 109 756 324 1039 623 93 98 229 273
271 347 l23 40 -35 -22 c-66 -43 -199 -113 -286 -151 -92 -40 -302 -111 -328
-111 -13 0 -15 69 -17 567 -3 532 -4 568 -20 571 -17 3 -18 -30 -18 -577 l0
-581 -31 0 -31 0 3 586 4 587 -22 14 -23 15 0 -605 c0 -333 -3 -608 -7 -610
-5 -3 -32 -8 -60 -12 l-53 -7 0 659 -1 658 -24 30 -25 30 0 -688 c0 -541 -3
-688 -12 -692 -7 -2 -34 -5 -61 -8 l-47 -5 2 747 c3 645 5 750 18 776 12 23
13 40 6 73 l-9 42 -847 0 -848 0 -6 -35 c-5 -27 -2 -41 14 -63 12 -16 25 -46
30 -68 13 -53 13 -767 0 -759 -5 3 -39 42 -75 87 l-65 82 0 243 c0 134 -2 243
-5 243 -2 0 -16 -11 -30 -25 -25 -26 -25 -28 -25 -193 -1 -190 2 -189 -76 -46
-24 45 -44 93 -44 109 0 24 -3 26 -22 21 -103 -29 -142 -36 -209 -36 -158 0
-314 62 -414 164 -226 230 -224 629 5 869 120 127 256 188 462 207 76 8 533
10 1386 8 1179 -3 1273 -2 1278 14 2 9 25 33 49 53 25 20 45 42 45 50 0 7 4
15 8 17 5 2 7 20 4 41 l-4 37 -377 1 c-207 0 -455 2 -551 3 -96 1 -538 3 -983
4 l-807 2 6 28 c15 62 79 225 134 337 95 194 215 363 384 542 43 46 77 83 75
82 -2 0 -47 -16 -99 -35z m165 -2078 c13 -13 28 -41 34 -62 14 -51 15 -1027 1
-1022 -5 2 -44 41 -85 88 l-76 85 3 425 c3 382 5 428 20 457 31 56 66 66 103
29z m306 9 c16 -9 39 -30 49 -48 19 -31 20 -55 20 -645 l0 -613 -32 17 c-18 9
-72 42 -120 73 l-88 56 0 538 c0 594 -2 578 63 617 39 24 68 25 108 5z m339 0
c17 -9 39 -33 50 -55 19 -38 20 -58 20 -720 l0 -681 -22 7 c-13 4 -67 29 -120
55 l-98 49 0 625 c0 690 -1 676 62 715 39 24 69 25 108 5z m324 3 c14 -6 35
-30 46 -53 19 -40 20 -60 20 -759 l0 -718 -41 7 c-22 4 -68 15 -102 24 l-62
18 0 699 c0 646 1 701 17 731 32 57 72 74 122 51z m287 2 c10 -6 27 -25 36
-43 17 -30 18 -88 21 -774 l3 -742 -53 5 c-29 3 -68 7 -86 10 l-33 5 3 732 c3
675 4 734 20 764 27 48 54 61 89 43z"/>
<path d="M880 3209 c-125 -18 -283 -99 -347 -176 -91 -110 -121 -168 -148
-283 -52 -226 32 -454 212 -572 104 -69 155 -83 308 -83 129 0 131 0 206 36
99 48 153 97 194 180 89 176 63 382 -65 510 -78 79 -143 103 -275 104 -87 0
-107 -3 -155 -26 -77 -36 -124 -80 -157 -146 -67 -138 -9 -329 120 -395 50
-25 147 -34 203 -19 53 14 119 62 139 102 26 50 31 131 10 184 -43 113 -202
149 -287 65 -23 -24 -28 -37 -28 -80 0 -44 4 -56 29 -81 34 -34 57 -39 41 -10
-18 34 -12 80 15 106 63 64 154 -2 125 -89 -16 -49 -44 -66 -108 -66 -47 0
-58 4 -83 31 -15 17 -31 46 -35 65 -23 126 79 212 217 183 153 -33 202 -254
83 -373 -50 -50 -109 -71 -199 -71 -97 0 -153 23 -214 85 -131 135 -112 390
36 493 87 60 129 72 253 72 109 0 119 -2 183 -32 83 -39 163 -118 202 -197
l27 -56 869 0 868 0 26 54 c75 159 230 243 430 234 111 -5 170 -33 251 -120
68 -74 89 -138 81 -243 -7 -91 -27 -135 -89 -201 -64 -68 -117 -89 -220 -88
-99 1 -176 36 -223 102 -26 38 -30 54 -33 120 -3 66 0 83 21 122 86 163 347
126 347 -49 0 -118 -122 -180 -207 -107 -37 32 -38 93 -4 130 49 52 131 18
131 -54 0 -21 -4 -42 -10 -45 -5 -3 -10 -10 -10 -16 0 -17 22 -9 51 20 23 23
29 38 29 72 0 85 -58 134 -157 133 -101 -1 -172 -79 -173 -192 0 -119 88 -199
231 -210 114 -8 204 49 254 160 57 128 29 269 -72 358 -92 81 -260 103 -395
51 -200 -77 -294 -349 -198 -569 27 -60 129 -163 194 -195 72 -36 125 -46 226
-47 256 0 452 148 515 390 22 85 16 238 -13 330 -24 74 -117 216 -171 260 -20
17 -74 50 -121 74 -153 80 -79 76 -1564 75 -721 -1 -1336 -5 -1366 -10z"/>
<path d="M1394 2614 c3 -9 6 -38 6 -65 l0 -49 845 0 c668 0 846 3 849 13 3 6
7 36 10 65 l5 52 -861 0 c-780 0 -860 -1 -854 -16z"/>
</g>
</svg>
