<?xml version="1.0" standalone="no"?>
<!DOCTYPE svg PUBLIC "-//W3C//DTD SVG 20010904//EN"
 "http://www.w3.org/TR/2001/REC-SVG-20010904/DTD/svg10.dtd">
<svg version="1.0" xmlns="http://www.w3.org/2000/svg"
 width="512.000000pt" height="512.000000pt" viewBox="0 0 512.000000 512.000000"
 preserveAspectRatio="xMidYMid meet">
<metadata>
Created by potrace 1.11, written by Peter Selinger 2001-2013
</metadata>
<g transform="translate(0.000000,512.000000) scale(0.100000,-0.100000)"
fill="#000000" stroke="none">
<path d="M0 2560 l0 -2560 2560 0 2560 0 0 2560 0 2560 -2560 0 -2560 0 0
-2560z m2388 1427 c7 -5 12 -3 12 4 0 9 42 11 168 8 141 -3 170 -7 186 -21 14
-13 36 -18 73 -18 29 0 53 -4 53 -8 0 -10 33 -27 69 -37 17 -5 22 -4 16 5 -5
9 -4 11 4 6 6 -4 9 -11 6 -16 -4 -7 19 -20 45 -25 25 -5 60 -22 85 -40 17 -13
52 -33 79 -46 27 -12 51 -31 54 -41 4 -17 9 -20 42 -22 8 -1 23 -19 33 -42 12
-25 34 -50 57 -64 22 -13 41 -34 44 -46 3 -12 14 -24 24 -26 10 -3 30 -31 45
-62 15 -31 32 -56 37 -56 6 0 9 -4 6 -9 -3 -5 1 -14 9 -21 8 -7 15 -17 15 -22
0 -5 12 -24 26 -43 14 -18 26 -45 28 -59 1 -13 8 -31 14 -38 6 -8 14 -29 17
-48 3 -19 15 -49 26 -66 10 -17 19 -39 19 -48 0 -10 4 -15 9 -12 15 10 20 -20
27 -149 4 -69 11 -125 16 -125 13 0 7 -149 -6 -157 -6 -4 0 -10 14 -14 14 -4
-535 -7 -1220 -7 -703 0 -1236 3 -1225 8 13 6 15 9 5 9 -12 1 -16 23 -18 121
-3 104 -1 120 12 120 13 0 16 12 16 59 0 33 5 61 10 63 6 2 13 26 15 53 5 53
21 95 42 108 17 10 17 37 1 37 -9 0 -10 3 -2 8 6 4 14 20 18 35 4 16 16 38 26
50 11 11 21 30 21 41 1 12 2 26 3 31 1 13 38 68 51 77 5 4 6 8 2 8 -4 0 6 13
22 29 16 16 27 32 24 35 -4 3 -1 6 6 6 7 0 17 14 23 31 6 18 16 28 23 25 8 -3
19 2 25 10 10 11 10 14 -1 14 -7 0 2 16 21 35 20 20 37 31 40 24 4 -6 11 -4
20 6 8 10 9 15 1 15 -6 0 -11 5 -11 12 0 6 3 9 6 5 4 -3 13 1 21 9 8 8 18 12
22 9 9 -5 58 44 52 53 -3 7 79 57 112 68 9 4 17 13 17 20 0 8 9 14 20 14 11 0
20 5 20 11 0 5 4 8 9 4 5 -3 12 -1 16 4 3 6 12 8 19 5 7 -3 20 2 29 10 8 8 31
16 50 18 20 1 34 5 32 9 -3 3 6 11 20 17 13 6 25 7 27 2 4 -12 78 20 78 34 0
14 126 16 148 3z m2090 -1428 c2 -24 -2 -45 -8 -49 -13 -8 -3797 -10 -3817 -3
-8 3 -13 23 -13 48 0 38 3 44 23 47 12 2 875 2 1917 1 l1895 -2 3 -42z m-3697
-88 c14 -13 19 -26 15 -39 -5 -14 -1 -21 14 -25 25 -6 28 -58 5 -77 -9 -7 -17
-11 -18 -9 -1 2 -10 20 -19 40 -11 24 -32 45 -59 60 -23 13 -46 34 -50 47 -8
21 -6 22 42 22 35 0 56 -6 70 -19z m86 0 c12 -10 23 -31 25 -47 4 -36 32 -39
36 -4 6 46 44 70 109 70 77 -1 108 -25 112 -87 2 -26 31 -13 31 12 0 15 11 36
26 50 38 35 131 36 168 1 15 -13 26 -33 26 -44 0 -11 5 -24 11 -28 13 -8 29
13 29 39 0 35 40 56 105 56 65 0 105 -21 105 -56 0 -26 16 -47 29 -39 6 4 11
17 11 28 0 11 11 31 26 44 20 19 36 24 80 24 64 0 106 -25 114 -67 7 -38 27
-39 35 -2 11 51 40 68 113 69 34 0 62 -4 62 -9 0 -5 9 -12 19 -16 13 -4 21
-17 23 -38 4 -43 32 -43 36 0 2 21 10 34 23 38 10 4 19 11 19 16 0 5 27 9 60
9 75 0 106 -18 115 -66 7 -39 28 -41 33 -3 2 13 15 34 29 46 19 19 36 23 83
23 67 0 110 -26 110 -66 0 -13 5 -26 11 -30 13 -8 29 13 29 39 0 35 40 56 105
56 65 0 105 -21 105 -56 0 -26 16 -47 29 -39 6 4 11 17 11 30 0 40 43 66 108
66 47 0 62 -4 85 -25 15 -15 27 -36 27 -50 0 -36 26 -31 34 6 9 48 42 68 109
69 65 0 103 -24 109 -70 4 -35 32 -32 36 4 6 46 37 65 107 65 65 0 105 -21
105 -56 0 -26 16 -47 29 -39 6 4 11 17 11 28 0 11 11 31 26 44 20 20 36 24 84
24 67 0 110 -26 110 -66 0 -13 5 -26 11 -30 13 -8 29 13 29 39 0 35 40 56 105
56 70 0 101 -19 107 -65 4 -36 32 -39 36 -4 5 33 45 70 76 70 23 0 24 -1 13
-32 -7 -18 -18 -37 -24 -43 -7 -5 -14 -21 -15 -35 -8 -70 -168 -47 -168 24 0
12 -4 27 -9 35 -13 21 -41 5 -41 -23 0 -52 -71 -93 -133 -75 -47 13 -64 29
-75 69 -11 46 -34 45 -45 -3 -13 -55 -64 -78 -138 -64 -44 9 -66 32 -71 72 -2
22 -8 30 -23 30 -15 0 -21 -8 -25 -34 -9 -64 -84 -91 -161 -58 -31 13 -37 21
-43 57 -8 52 -37 53 -47 1 -4 -18 -13 -39 -20 -46 -22 -22 -80 -33 -119 -22
-45 11 -60 27 -69 68 -10 51 -39 51 -47 -1 -7 -42 -20 -55 -76 -70 -31 -10
-82 3 -110 27 -9 9 -18 29 -20 47 -2 23 -8 31 -23 31 -15 0 -21 -8 -23 -31 -5
-56 -72 -91 -139 -72 -52 14 -62 24 -69 69 -5 29 -11 39 -25 39 -13 0 -19 -7
-19 -22 0 -42 -24 -72 -65 -84 -73 -20 -145 16 -145 72 0 28 -28 44 -41 23 -5
-8 -9 -26 -9 -40 0 -21 -8 -31 -37 -45 -45 -21 -79 -22 -122 -5 -30 13 -33 18
-45 74 -9 39 -38 32 -47 -12 -9 -41 -24 -57 -69 -69 -71 -18 -140 21 -140 79
0 22 -5 29 -19 29 -15 0 -21 -10 -26 -40 -10 -57 -60 -82 -136 -67 -44 9 -66
32 -71 72 -2 22 -8 30 -23 30 -12 0 -21 -8 -23 -20 -9 -58 -12 -63 -57 -78
-75 -26 -140 1 -150 63 -9 51 -36 52 -46 1 -9 -41 -24 -57 -69 -69 -69 -17
-140 20 -140 74 0 28 -28 44 -41 23 -5 -8 -9 -24 -9 -36 0 -29 -23 -50 -66
-62 -44 -12 -94 3 -94 29 0 9 -9 29 -20 43 -11 14 -20 31 -20 39 0 8 -5 19
-12 26 -20 20 44 14 69 -7z m76 2 c-15 -10 -23 -26 -23 -45 0 -17 -4 -27 -10
-23 -5 3 -10 17 -10 29 0 13 -10 31 -22 39 -22 15 -21 16 32 16 53 0 54 -1 33
-16z m249 -3 c-12 -12 -22 -33 -23 -48 -1 -25 -2 -25 -9 6 -4 18 -16 39 -26
47 -17 13 -14 14 30 15 l50 0 -22 -20z m260 4 c-12 -8 -22 -26 -22 -39 0 -13
-4 -27 -10 -30 -6 -4 -10 6 -10 23 0 19 -8 35 -22 45 -22 15 -21 16 32 16 52
1 53 0 32 -15z m251 -1 c-15 -10 -23 -26 -23 -45 0 -17 -4 -27 -10 -23 -5 3
-10 17 -10 29 0 13 -10 31 -22 39 -22 15 -21 16 32 16 53 0 54 -1 33 -16z
m253 -2 c-9 -10 -21 -32 -26 -47 l-8 -29 -1 27 c-1 15 -11 36 -23 48 l-22 20
49 0 c47 0 48 -1 31 -19z m257 2 c-13 -9 -23 -26 -23 -39 0 -13 -4 -24 -10
-24 -5 0 -10 11 -10 24 0 13 -10 30 -22 39 -22 15 -21 16 32 16 53 0 54 -1 33
-16z m250 -1 c-12 -9 -23 -30 -26 -47 l-4 -30 -8 33 c-4 18 -17 39 -29 47 -19
14 -17 15 34 15 54 0 55 -1 33 -18z m261 3 c-12 -8 -25 -29 -29 -47 l-8 -33
-4 30 c-3 17 -14 38 -26 47 -22 17 -21 18 33 18 51 0 53 -1 34 -15z m249 -2
c-15 -10 -23 -26 -23 -45 0 -17 -4 -27 -10 -23 -5 3 -10 17 -10 30 0 13 -10
31 -22 39 -21 15 -20 16 32 15 53 0 54 -1 33 -16z m249 -3 c-12 -12 -22 -33
-23 -48 -1 -25 -2 -25 -11 7 -5 19 -17 41 -26 48 -15 10 -10 12 32 13 l50 0
-22 -20z m261 3 c-13 -8 -23 -26 -23 -39 0 -12 -4 -26 -10 -29 -6 -4 -10 6
-10 23 0 19 -8 35 -22 45 -22 15 -21 16 32 16 53 0 54 -1 33 -16z m250 -1
c-12 -9 -23 -30 -26 -47 l-4 -30 -8 33 c-4 18 -17 39 -29 47 -19 14 -17 15 34
15 54 0 55 -1 33 -18z m261 3 c-12 -8 -25 -29 -29 -47 l-8 -33 -4 30 c-3 17
-14 38 -26 47 -22 17 -21 18 33 18 51 0 53 -1 34 -15z m249 -2 c-15 -10 -23
-26 -23 -45 0 -17 -4 -27 -10 -23 -5 3 -10 17 -10 29 0 13 -10 31 -22 39 -22
15 -21 16 32 16 53 0 54 -1 33 -16z m217 11 c0 -19 -26 -47 -61 -64 -26 -14
-45 -33 -57 -58 -9 -20 -18 -39 -19 -41 -1 -2 -9 2 -18 9 -23 19 -20 71 5 77
13 4 20 12 18 24 -6 38 23 59 79 59 29 0 53 -3 53 -6z m-3404 -89 c8 -34 7
-48 -2 -55 -10 -9 -44 -4 -44 7 0 17 24 93 29 93 4 0 11 -20 17 -45z m253 -1
c14 -53 5 -70 -29 -59 -15 5 -19 12 -15 23 4 10 9 32 12 50 8 45 19 40 32 -14z
m251 6 c0 -16 5 -32 10 -35 13 -8 -6 -35 -25 -35 -19 0 -38 27 -25 35 5 3 10
19 10 34 0 15 3 31 6 34 12 12 24 -4 24 -33z m253 13 c3 -16 8 -38 12 -49 7
-24 -14 -38 -41 -27 -11 4 -14 12 -9 27 4 11 9 33 12 49 3 15 9 27 13 27 4 0
10 -12 13 -27z m251 10 c17 -61 17 -83 2 -89 -25 -9 -48 14 -36 36 6 10 10 30
10 44 0 29 16 35 24 9z m256 -9 c0 -14 4 -34 10 -44 12 -22 -11 -45 -36 -36
-15 6 -15 28 2 89 8 26 24 20 24 -9z m258 -21 c10 -37 10 -48 0 -55 -16 -10
-20 -10 -37 1 -12 8 -13 14 -3 36 7 14 12 35 12 45 0 36 16 21 28 -27z m252 7
c0 -16 5 -32 10 -35 13 -8 -6 -35 -25 -35 -19 0 -38 27 -25 35 5 3 10 19 10
34 0 15 3 31 6 34 12 12 24 -4 24 -33z m253 8 c3 -18 8 -40 12 -50 4 -11 0
-18 -15 -23 -34 -11 -43 6 -29 59 13 54 24 59 32 14z m256 -15 c10 -37 9 -48
-1 -54 -18 -12 -24 -11 -37 5 -9 11 -9 20 -2 35 6 11 11 29 11 40 0 37 17 22
29 -26z m253 15 c3 -18 7 -39 9 -46 7 -22 -26 -38 -46 -22 -11 9 -13 16 -5 24
5 5 10 22 10 36 0 50 26 55 32 8z m248 12 c0 -10 5 -31 12 -45 10 -22 9 -28
-3 -36 -17 -11 -21 -11 -37 -1 -10 7 -10 18 0 55 12 48 28 63 28 27z m264 -43
c5 -29 3 -39 -9 -43 -21 -8 -49 16 -35 30 5 5 10 22 10 36 0 59 22 44 34 -23z
m-3046 -47 c20 11 35 13 60 5 59 -17 33 -25 -83 -25 -118 0 -144 9 -77 26 29
8 41 7 55 -5 16 -14 22 -14 45 -1z m252 -5 c11 3 20 11 20 16 0 6 7 6 19 -1
11 -5 29 -10 40 -10 12 0 21 -4 21 -10 0 -6 -45 -10 -115 -10 -116 0 -143 9
-82 27 24 7 38 6 54 -5 12 -7 31 -11 43 -7z m206 10 c19 -18 35 -19 58 -2 14
10 26 11 52 3 19 -6 34 -14 34 -18 0 -5 -52 -8 -115 -8 -117 0 -141 7 -82 27
17 5 33 11 35 12 2 0 10 -6 18 -14z m302 -5 c21 12 36 13 65 6 67 -17 39 -26
-83 -26 -122 0 -150 9 -82 26 29 8 41 7 55 -5 17 -14 21 -14 45 -1z m252 -5
c11 3 20 10 20 14 0 5 18 3 40 -2 22 -6 40 -15 40 -19 0 -4 -52 -8 -115 -8
-116 0 -142 8 -82 26 24 7 38 6 54 -4 12 -8 31 -11 43 -7z m234 -5 c7 0 21 6
31 14 14 10 26 11 52 3 62 -19 34 -28 -82 -26 -63 1 -115 5 -115 9 0 3 17 11
38 16 27 7 41 6 50 -3 7 -7 19 -13 26 -13z m283 12 c13 12 23 14 33 8 8 -5 25
-10 38 -10 12 0 22 -4 22 -10 0 -6 -47 -10 -120 -10 -73 0 -120 4 -120 10 0 6
10 10 23 10 12 0 28 4 36 9 8 5 24 3 41 -7 26 -15 30 -15 47 0z m253 -1 c18
12 30 13 56 5 19 -6 34 -14 34 -18 0 -5 -52 -8 -115 -8 -116 0 -142 8 -82 25
24 8 39 6 58 -4 23 -13 29 -13 49 0z m248 -1 c20 11 35 13 60 5 59 -17 33 -25
-83 -25 -118 0 -144 9 -77 26 29 8 41 7 55 -5 16 -14 22 -14 45 -1z m234 -10
c9 0 21 6 27 14 9 10 20 11 51 3 22 -6 40 -15 40 -19 0 -4 -55 -8 -122 -8
-121 0 -135 5 -75 26 25 9 35 9 48 -2 8 -8 23 -14 31 -14z m274 9 c28 12 94 5
94 -10 0 -5 -52 -9 -115 -9 -116 0 -142 8 -82 26 24 7 38 6 55 -5 18 -11 28
-11 48 -2z m236 -9 c9 0 21 7 28 15 9 11 17 12 30 5 10 -6 28 -10 39 -10 12 0
21 -4 21 -10 0 -6 -45 -10 -114 -10 -66 0 -117 4 -121 10 -3 6 4 10 17 10 13
0 30 5 38 10 10 6 20 4 31 -6 8 -7 23 -14 31 -14z m268 5 c11 3 20 10 20 14 0
5 18 3 40 -2 22 -6 40 -15 40 -19 0 -4 -52 -8 -115 -8 -116 0 -142 8 -82 26
24 7 38 6 54 -4 12 -8 31 -11 43 -7z m-3214 5 c8 0 14 -4 14 -10 0 -5 -19 -10
-41 -10 -36 0 -40 2 -29 15 7 9 20 13 27 10 8 -3 21 -5 29 -5z m3404 -5 c11
-13 7 -15 -29 -15 -44 0 -56 16 -18 23 12 2 25 5 28 6 4 0 12 -6 19 -14z m155
-52 c333 -89 528 -262 626 -553 29 -87 32 -106 33 -225 2 -382 -181 -648 -519
-755 -100 -32 -293 -39 -401 -15 -254 56 -427 220 -490 466 -23 88 -15 250 16
334 30 81 101 185 158 235 132 115 350 167 515 124 296 -76 434 -352 307 -611
-63 -128 -176 -203 -315 -211 -189 -10 -329 72 -371 216 -31 105 -1 216 78
288 56 52 102 67 186 62 84 -4 137 -31 177 -87 59 -83 30 -218 -56 -256 -59
-27 -142 -17 -180 22 -82 82 -14 215 93 183 21 -6 44 -20 53 -33 26 -37 15
-117 -19 -139 -23 -15 6 -20 41 -7 58 22 86 71 81 140 -8 105 -78 162 -203
163 -53 0 -80 -5 -112 -21 -146 -78 -177 -301 -56 -415 72 -68 210 -107 311
-88 126 23 209 88 265 208 54 116 47 269 -17 371 -27 42 -96 107 -147 139 -46
28 -177 62 -240 62 -74 0 -192 -26 -256 -57 -117 -56 -220 -189 -258 -333 -19
-71 -19 -208 0 -288 80 -339 460 -508 848 -377 99 34 172 80 252 160 127 128
186 280 188 480 1 125 -12 200 -54 299 -63 149 -192 298 -321 369 -86 49 -225
93 -333 107 -66 8 -558 10 -1820 8 l-1730 -3 -99 -27 c-159 -44 -254 -97 -356
-197 -98 -97 -155 -186 -195 -305 -83 -247 -36 -514 123 -704 127 -152 366
-244 590 -229 168 11 309 73 409 181 99 105 143 223 143 379 0 163 -47 283
-150 388 -77 77 -144 113 -254 134 -104 20 -158 19 -251 -5 -271 -69 -391
-337 -262 -583 62 -118 170 -180 312 -180 109 1 183 29 250 97 74 75 92 154
60 264 -19 62 -62 115 -119 145 -57 30 -164 29 -223 -1 -61 -32 -97 -97 -91
-163 6 -61 33 -99 82 -118 46 -17 54 -10 27 25 -23 29 -28 83 -10 116 15 27
71 49 108 42 43 -9 72 -45 78 -97 5 -40 2 -48 -28 -81 -26 -28 -44 -39 -76
-43 -99 -13 -163 25 -189 112 -39 136 57 245 217 245 181 0 299 -171 244 -356
-42 -143 -181 -222 -370 -212 -98 6 -166 36 -242 111 -29 28 -53 46 -53 41 0
-6 24 -34 54 -62 49 -46 53 -54 40 -67 -23 -23 -44 -18 -44 9 0 14 -4 28 -10
31 -5 3 -10 0 -10 -8 0 -26 -57 -79 -78 -73 -11 4 -30 2 -43 -2 l-24 -9 23 -7
c34 -11 67 0 101 35 28 28 31 29 31 10 0 -27 33 -28 60 -1 24 24 39 25 66 6
19 -14 19 -15 -4 -45 -12 -17 -18 -31 -12 -31 7 0 10 -8 8 -17 -2 -11 8 -26
27 -38 33 -23 42 -53 25 -84 -13 -26 -55 -37 -75 -21 -14 11 -13 14 7 24 32
16 30 56 -3 75 -23 13 -38 13 -113 1 -81 -12 -90 -12 -134 6 -92 39 -193 200
-229 368 -17 82 -14 299 6 319 8 8 11 8 11 -1 0 -7 14 -21 31 -31 28 -17 29
-20 13 -29 -15 -9 -16 -13 -5 -26 9 -11 10 -16 2 -16 -6 0 -11 -6 -11 -13 0
-8 -11 -20 -25 -27 -29 -16 -30 -21 -10 -60 9 -17 12 -40 9 -59 -7 -35 16 -52
41 -31 21 17 19 1 -5 -35 -25 -38 -25 -77 0 -100 11 -10 20 -14 21 -9 2 19 17
-42 18 -73 1 -42 16 -49 42 -20 16 20 26 23 47 18 35 -10 79 3 110 31 l25 23
-6 -22 c-3 -13 -1 -25 4 -28 10 -7 1 -34 -19 -57 -9 -11 -11 -18 -4 -18 44 0
52 155 13 241 -11 25 -25 77 -31 116 -49 313 254 552 605 478 194 -41 340
-167 412 -353 34 -88 43 -245 19 -345 -44 -186 -162 -331 -337 -411 -116 -53
-208 -70 -358 -63 -185 7 -322 57 -457 165 -230 186 -326 580 -212 875 114
297 342 474 685 532 63 11 423 13 1848 11 l1770 -1 80 -22z m-3418 -73 c10
-27 10 -29 -7 -20 -10 5 -20 15 -23 22 -3 10 -9 10 -23 2 -14 -8 -35 -8 -79 1
-73 14 -56 23 45 24 75 1 76 1 87 -29z m818 15 c-105 -19 -200 -61 -257 -113
-28 -25 -72 -32 -90 -14 -8 8 -7 20 2 41 10 25 10 34 0 46 -27 33 -80 6 -80
-42 0 -15 13 -38 34 -59 18 -18 31 -36 28 -39 -12 -12 -33 -3 -63 26 -19 18
-38 29 -49 26 -11 -3 -23 5 -34 23 -9 15 -34 37 -56 48 -39 19 -40 19 -46 0
-3 -11 -3 -35 1 -54 8 -46 -2 -43 -15 5 -7 29 -19 43 -43 54 -17 9 -38 25 -45
36 -7 12 -19 21 -26 21 -9 0 -3 -12 16 -30 16 -16 36 -30 44 -30 8 0 14 -7 14
-16 0 -8 4 -13 9 -10 5 3 16 -14 25 -38 17 -43 41 -74 51 -64 3 3 -2 21 -10
41 -16 38 -20 87 -7 87 20 0 74 -43 84 -67 16 -38 16 -37 34 -23 13 12 20 9
45 -18 17 -18 38 -32 48 -32 18 0 60 26 51 32 -3 2 -18 10 -35 18 -35 18 -55
63 -39 88 13 21 34 25 54 12 12 -8 13 -13 3 -30 -19 -30 -16 -48 12 -66 29
-19 55 -12 100 27 39 35 144 84 212 100 68 15 258 12 350 -6 101 -20 220 -79
250 -124 24 -36 30 -89 13 -122 -13 -23 -45 -27 -36 -4 7 20 -10 64 -37 94
-53 57 -163 80 -191 39 -8 -12 -12 -26 -9 -31 3 -5 0 -8 -8 -5 -8 2 -15 17
-17 31 -4 29 -13 33 -44 16 -17 -9 -19 -17 -14 -53 8 -53 -8 -72 -48 -57 -30
12 -43 52 -27 87 14 32 14 34 -4 34 -22 0 -18 13 10 40 14 13 25 27 25 32 0
12 -50 -15 -78 -42 -23 -21 -24 -21 -37 -4 -13 18 -14 17 -24 -9 -6 -16 -11
-39 -11 -53 0 -13 -4 -24 -9 -24 -5 0 -11 -9 -14 -21 -8 -29 -27 -14 -27 22 0
18 -5 29 -14 29 -18 0 -25 28 -14 58 9 26 1 28 -30 6 -25 -17 -29 -56 -7 -74
8 -7 15 -18 15 -26 0 -19 -20 -28 -33 -15 -17 17 -24 13 -32 -16 -10 -40 -24
-53 -55 -53 -28 0 -40 19 -40 63 0 10 -6 25 -14 32 -12 12 -24 8 -80 -26 -97
-58 -139 -71 -241 -73 -96 -1 -110 4 -212 78 -37 27 -28 46 20 46 l29 0 -31
29 c-29 27 -35 40 -32 67 1 6 -6 17 -14 24 -43 36 -34 37 460 37 363 1 402 0
340 -12z m639 0 c14 -6 17 -5 12 3 -5 8 3 12 24 12 18 0 29 -4 25 -10 -3 -5
-15 -10 -26 -10 -21 0 -26 -15 -8 -26 7 -4 9 -33 5 -88 -4 -58 -3 -74 4 -58 5
13 14 20 20 17 6 -4 10 11 10 39 0 25 5 46 10 46 6 0 10 -18 10 -39 0 -24 5
-41 14 -44 8 -3 17 -16 20 -29 2 -13 2 15 0 62 -5 80 -4 87 18 106 25 22 63
40 53 25 -7 -12 35 -42 47 -35 9 6 11 -8 2 -30 -8 -20 -50 -21 -57 -2 -3 7 0
19 6 25 8 8 8 11 0 11 -18 0 -25 -18 -18 -41 6 -17 13 -20 41 -17 37 4 45 -10
18 -33 -25 -20 -44 -65 -44 -102 0 -51 -20 -62 -110 -62 -94 0 -110 10 -110
71 0 34 -7 51 -30 77 -39 44 -38 54 4 49 28 -3 35 0 41 18 9 28 -25 61 -57 57
-18 -3 -24 -11 -26 -36 -2 -21 -7 -29 -15 -24 -7 4 -16 8 -22 8 -5 0 -48 13
-95 28 -47 15 -116 31 -155 36 -54 7 -19 9 150 7 121 -1 229 -6 239 -11z m141
5 c-3 -5 -15 -10 -25 -10 -10 0 -22 5 -25 10 -4 6 7 10 25 10 18 0 29 -4 25
-10z m400 -1 c-38 -5 -108 -21 -155 -36 -47 -15 -89 -26 -94 -25 -4 2 -14 -2
-21 -8 -11 -9 -14 -4 -17 22 -2 18 -9 34 -15 34 -37 4 -38 4 -23 14 9 5 97 9
205 9 157 -1 178 -3 120 -10z m1061 -1 c4 -5 -1 -17 -10 -27 -10 -11 -15 -25
-11 -31 4 -7 -2 -25 -14 -41 -12 -16 -17 -29 -12 -29 5 0 19 15 30 34 19 31
60 66 77 66 3 0 4 -8 2 -18 -5 -16 1 -18 44 -18 42 1 53 -3 74 -27 27 -32 29
-46 11 -70 -11 -16 -15 -16 -52 4 -32 16 -51 19 -97 15 -32 -3 -70 -1 -84 5
-19 7 -31 6 -38 -1 -7 -7 -1 -10 20 -10 49 0 58 -19 21 -46 -18 -13 -42 -31
-55 -40 -33 -25 -92 -43 -137 -43 -70 -1 -175 27 -228 60 -91 56 -98 59 -113
44 -8 -7 -14 -22 -14 -32 0 -44 -12 -63 -39 -63 -35 0 -51 17 -51 53 0 24 -3
28 -17 22 -48 -18 -73 6 -38 35 20 16 19 49 -2 72 -23 26 -47 24 -33 -2 15
-27 3 -70 -18 -63 -12 5 -14 1 -10 -15 3 -12 0 -29 -8 -39 -13 -17 -14 -17
-20 5 -3 12 -10 22 -15 22 -5 0 -9 11 -9 24 0 14 -5 37 -11 53 -9 25 -12 26
-20 11 -9 -16 -13 -15 -51 12 -58 42 -81 39 -38 -5 32 -33 32 -35 12 -35 -20
0 -21 -3 -12 -20 18 -34 8 -83 -19 -97 -41 -20 -62 -1 -55 49 6 33 4 44 -11
55 -31 22 -48 17 -41 -12 5 -20 2 -26 -19 -31 -14 -3 -25 -11 -25 -16 0 -6 -6
-5 -15 2 -20 17 -8 32 18 24 20 -6 21 -6 5 17 -48 73 -228 -11 -228 -106 0
-24 -5 -35 -15 -35 -39 0 -47 90 -12 141 30 45 149 104 250 124 92 18 282 21
350 6 64 -15 171 -64 210 -97 47 -39 75 -47 103 -29 26 17 31 44 12 63 -19 19
16 51 40 36 39 -25 17 -97 -33 -110 -31 -8 -32 -20 -4 -34 29 -16 63 -5 83 25
16 25 46 34 46 15 0 -20 15 -9 30 23 8 18 30 40 50 50 l35 17 3 -30 c2 -17 -4
-44 -12 -62 -9 -17 -14 -33 -11 -36 9 -9 36 21 31 34 -3 8 0 13 6 11 6 -1 16
14 23 33 8 19 14 31 15 25 0 -5 5 -2 11 8 5 9 15 17 20 17 6 0 24 14 39 30 18
19 23 30 14 30 -8 0 -19 -9 -26 -21 -7 -11 -27 -27 -44 -35 -20 -10 -35 -27
-42 -47 l-10 -32 -1 32 c-2 58 -7 62 -52 40 -22 -11 -46 -32 -54 -47 -10 -19
-20 -27 -33 -24 -11 3 -30 -7 -50 -25 -32 -31 -56 -39 -66 -23 -3 5 5 15 19
22 29 16 49 61 41 95 -8 31 -51 44 -73 22 -14 -14 -14 -20 -3 -48 12 -28 12
-33 -4 -45 -21 -15 -58 -4 -91 25 -56 49 -140 85 -250 106 -63 12 -24 14 367
12 240 -1 440 -5 444 -9z m189 2 c17 -7 16 -9 -10 -9 -17 -1 -45 -5 -64 -11
-23 -6 -40 -6 -54 2 -16 8 -22 8 -25 -1 -2 -6 -13 -16 -25 -22 -18 -9 -20 -9
-9 2 6 7 12 21 12 31 0 16 9 18 78 17 42 0 86 -4 97 -9z m-1687 -20 c4 0 7
-29 7 -65 0 -72 -12 -89 -17 -22 -2 29 -8 42 -18 42 -10 0 -16 -13 -18 -42 -5
-67 -17 -51 -17 22 0 65 8 79 43 69 8 -2 17 -4 20 -4z m-1653 -18 c18 -10 16
-11 -16 -12 -21 0 -47 -9 -62 -20 -14 -11 -39 -20 -55 -20 -41 0 -61 -9 -73
-32 -9 -18 -8 -18 10 -9 17 9 24 8 41 -9 17 -17 18 -24 10 -41 -15 -27 -36
-34 -66 -20 -45 20 -63 99 -31 139 14 18 2 25 -22 13 -30 -16 -43 -45 -32 -73
7 -18 3 -30 -18 -55 -26 -31 -28 -32 -49 -17 -29 20 -28 56 4 93 38 45 5 41
-35 -4 -38 -43 -42 -95 -11 -116 28 -19 19 -79 -11 -72 -10 3 -24 11 -30 19
-6 8 -15 14 -20 14 -14 0 -10 -36 5 -50 15 -12 12 -28 -14 -67 -19 -30 -41
-29 -70 2 -18 19 -22 31 -17 60 5 30 3 36 -8 31 -25 -9 -18 29 11 63 30 36 24
39 -22 11 -42 -27 -48 -47 -45 -146 2 -69 -1 -83 -18 -98 -26 -24 -61 -13 -61
20 0 36 -28 30 -47 -12 -16 -32 -16 -38 -2 -62 12 -22 23 -28 57 -30 34 -3 47
2 68 23 14 14 27 25 29 23 47 -57 1 -134 -79 -132 -76 2 -125 57 -112 126 10
53 102 198 169 266 77 79 183 146 290 184 76 27 91 29 197 25 63 -1 124 -8
135 -15z m3610 -20 c192 -76 346 -225 420 -409 20 -49 22 -61 11 -87 -29 -71
-131 -96 -182 -45 -29 29 -34 69 -13 95 11 14 14 14 23 2 17 -23 52 -38 85
-38 54 0 78 71 39 117 -12 15 -42 18 -33 3 10 -16 -14 -50 -35 -50 -36 0 -54
43 -47 115 7 78 -4 115 -44 144 -41 30 -46 22 -15 -24 26 -38 27 -58 2 -49
-11 4 -13 -3 -9 -33 4 -32 1 -42 -21 -62 -30 -28 -49 -23 -76 21 -17 28 -18
34 -5 48 16 18 20 50 6 50 -5 0 -14 -6 -20 -14 -6 -8 -20 -16 -30 -19 -15 -3
-20 2 -25 26 -5 24 -1 34 19 53 20 19 24 29 19 51 -7 30 -47 78 -77 95 -15 8
-14 2 7 -28 31 -46 33 -75 6 -99 -19 -17 -20 -16 -46 14 -15 18 -28 30 -31 28
-5 -6 40 -76 50 -77 5 0 21 13 37 29 21 20 27 35 24 52 -5 19 -4 21 5 9 17
-24 13 -58 -9 -70 -28 -15 -27 -100 2 -100 11 0 29 5 41 12 20 10 21 10 8 -6
-11 -13 -12 -22 -2 -42 17 -38 15 -38 -41 5 -64 47 -125 78 -198 102 -54 18
-54 18 -18 18 31 1 42 8 71 44 49 60 54 81 23 112 -14 14 -30 25 -36 25 -13 0
-13 -1 6 -39 20 -40 11 -84 -23 -111 -29 -23 -53 -26 -71 -8 -32 32 3 88 41
67 13 -8 15 -7 11 6 -9 22 -37 35 -74 35 -18 0 -43 9 -57 20 -14 11 -42 20
-62 21 l-36 1 40 14 c27 9 76 13 150 11 96 -3 120 -7 190 -35z m-3504 -24 c43
-45 48 -53 32 -60 -10 -4 -44 -4 -75 -1 -47 4 -65 1 -99 -16 -47 -25 -61 -19
-61 24 0 44 35 70 91 69 42 0 48 2 43 18 -8 32 18 19 69 -34z m1409 37 c16
-19 4 -35 -25 -35 -20 0 -35 16 -35 39 0 13 48 10 60 -4z m-1784 -50 c-6 -19
-13 -30 -14 -25 -6 16 7 60 17 60 4 0 3 -16 -3 -35z m3803 -8 c-1 -31 -1 -31
-9 -7 -11 36 -11 52 0 45 6 -3 10 -21 9 -38z m-2491 6 c-30 -36 -32 -46 -8
-38 19 6 22 4 17 -10 -4 -9 -7 -21 -7 -26 0 -5 -5 -9 -12 -9 -21 0 -58 -43
-58 -66 0 -30 15 -38 33 -19 14 13 16 13 20 -3 3 -10 5 -6 6 11 1 33 -23 37
-34 5 l-8 -23 -4 25 c-4 17 2 30 17 42 28 23 36 23 43 -1 2 -10 17 -27 31 -36
22 -15 31 -16 53 -6 22 10 25 16 20 46 -7 45 3 50 46 23 28 -18 36 -31 39 -58
2 -27 8 -36 26 -38 18 -3 22 1 22 22 0 14 -5 26 -11 26 -5 0 -7 5 -4 10 8 14
61 13 88 -1 l21 -12 -23 -9 c-13 -4 -25 -17 -28 -28 -5 -20 -12 -21 -182 -20
-222 2 -244 12 -207 93 8 18 16 43 18 57 2 19 8 24 23 22 12 -1 31 8 45 23 26
28 42 26 18 -2z m1228 -21 c14 2 20 -4 22 -22 2 -14 10 -39 18 -57 37 -81 15
-91 -207 -93 -170 -1 -177 0 -182 20 -3 11 -15 24 -28 28 l-23 9 21 12 c27 14
80 15 88 1 3 -5 1 -10 -4 -10 -6 0 -11 -12 -11 -26 0 -21 4 -25 23 -22 18 2
23 10 25 40 2 26 9 39 23 43 10 4 26 13 34 21 22 22 34 8 28 -31 -5 -30 -2
-36 20 -46 22 -10 31 -9 53 6 14 9 29 26 31 36 6 23 12 24 41 3 22 -15 33 -72
11 -59 -6 4 -8 13 -5 21 3 9 -2 14 -14 14 -15 0 -20 -6 -19 -27 l1 -28 8 25
c5 15 8 18 9 9 1 -22 30 -33 37 -14 11 28 -6 63 -35 76 -35 16 -52 64 -18 53
19 -6 19 -5 -3 32 l-23 39 30 -28 c17 -16 39 -27 49 -25z m-1400 -49 c8 -3 14
-16 14 -28 0 -13 5 -25 11 -27 6 -2 17 -18 25 -36 l13 -32 -272 1 c-169 1
-257 4 -231 9 54 11 108 34 165 70 46 30 76 39 64 20 -3 -5 -2 -10 3 -10 5 0
12 -18 16 -40 6 -39 7 -40 46 -40 36 0 42 4 57 35 9 19 20 32 25 29 15 -9 46
6 51 25 2 11 -3 24 -14 32 -19 13 -25 49 -11 63 4 4 11 -9 16 -29 4 -20 15
-39 22 -42z m1554 43 c0 -13 -7 -29 -15 -36 -17 -14 -18 -8 -9 39 7 34 24 32
24 -3z m-2540 -4 c0 -15 7 -38 16 -50 9 -13 14 -25 12 -28 -3 -2 -39 -13 -80
-23 -119 -31 -215 -85 -285 -161 -38 -41 -44 -32 -8 12 28 33 32 57 12 77 -10
11 -8 11 10 2 12 -6 31 -11 42 -11 18 0 21 6 21 42 0 29 -7 49 -21 64 -17 18
-20 29 -13 51 l8 28 4 -33 c2 -24 12 -38 35 -53 35 -21 52 -25 42 -9 -3 5 8
24 24 42 22 24 30 28 31 16 0 -23 47 -58 78 -58 31 0 62 26 62 52 0 10 -9 27
-20 38 -26 26 -25 30 5 30 21 0 25 -5 25 -28z m3530 18 c0 -5 -5 -10 -10 -10
-6 0 -15 -11 -22 -25 -9 -19 -8 -29 6 -50 16 -24 16 -25 -6 -25 -13 0 -29 4
-37 9 -11 7 -11 13 3 32 9 13 16 36 16 51 0 23 4 28 25 28 14 0 25 -4 25 -10z
m-2230 -30 c0 -5 -7 -10 -16 -10 -8 0 -12 5 -9 10 3 6 10 10 16 10 5 0 9 -4 9
-10z m172 -9 c48 -20 72 -44 85 -81 18 -48 7 -60 -53 -60 -30 0 -54 4 -54 9 0
16 27 31 44 25 22 -9 20 12 -4 36 -25 25 -92 27 -111 3 -11 -13 -11 -17 -1
-20 6 -3 12 -11 12 -20 0 -23 -25 -9 -28 16 -2 14 6 33 19 47 l22 23 -27 12
c-19 9 -23 15 -14 21 21 13 64 9 110 -11z m646 11 c9 -6 5 -12 -14 -21 l-27
-12 23 -24 c13 -14 21 -27 18 -30 -3 -3 -11 1 -18 10 -18 21 -73 19 -104 -6
-28 -22 -35 -45 -11 -35 21 8 45 -3 45 -20 0 -10 -15 -14 -55 -14 l-55 0 0 33
c0 60 81 123 160 126 14 0 31 -3 38 -7z m87 -2 c3 -5 -1 -10 -9 -10 -9 0 -16
5 -16 10 0 6 4 10 9 10 6 0 13 -4 16 -10z m-2017 -16 c13 -4 22 -14 22 -26 0
-10 5 -16 10 -13 6 4 27 -7 48 -23 45 -36 95 -62 119 -63 11 0 13 -3 5 -6 -7
-2 -45 9 -85 26 -42 17 -112 36 -165 43 -96 14 -103 21 -47 51 32 17 57 20 93
11z m3202 -12 c45 -25 50 -42 10 -42 -52 0 -175 -29 -235 -55 -30 -14 -63 -25
-73 -25 -9 1 1 7 23 15 21 8 60 29 85 46 25 18 51 32 58 32 6 0 12 6 12 14 0
15 33 31 65 32 11 1 36 -7 55 -17z m-2016 -1 c3 -5 -1 -14 -9 -21 -13 -10 -15
-9 -15 9 0 21 14 28 24 12z m1140 -26 c12 -19 22 -24 39 -20 19 5 24 1 32 -27
9 -30 14 -33 52 -36 41 -3 42 -3 49 35 11 58 27 69 67 44 57 -37 134 -72 179
-80 28 -6 -50 -9 -230 -10 l-273 -1 17 32 c9 18 23 38 31 46 8 8 12 21 9 28
-9 23 11 15 28 -11z m-2283 -51 c30 -9 72 -25 94 -35 39 -19 84 -19 1425 -17
l1385 3 63 28 c93 42 206 54 307 34 207 -42 366 -179 409 -353 9 -36 15 -69
12 -71 -3 -3 -8 8 -12 23 -43 180 -251 324 -469 324 -116 0 -188 -16 -283 -61
-116 -56 -194 -135 -256 -260 l-47 -94 -152 -5 c-297 -11 -2088 -10 -2082 0 3
6 2 10 -3 10 -6 0 -17 21 -26 47 -23 68 -91 167 -150 219 -59 53 -188 117
-264 133 -86 18 -221 14 -293 -9 -160 -49 -291 -173 -323 -304 -4 -15 -9 -27
-11 -24 -11 10 29 139 58 187 64 107 208 204 349 236 74 17 190 12 269 -11z
m-713 -8 c-8 -20 -7 -32 6 -60 9 -18 16 -39 16 -45 0 -12 62 -61 78 -61 6 0
-5 -30 -24 -66 -19 -36 -34 -74 -34 -84 0 -11 -16 -34 -35 -52 -66 -60 -124
-224 -109 -306 5 -28 9 -31 16 -18 5 9 20 16 33 16 19 0 25 -5 25 -23 0 -29
-18 -47 -47 -47 -24 0 -31 -14 -13 -25 14 -9 12 -57 -4 -78 -14 -18 -14 -18
-19 0 -3 10 -8 34 -11 54 -5 25 -13 38 -26 42 -35 9 -33 33 9 118 47 94 54
133 14 71 -26 -40 -57 -61 -71 -48 -3 4 1 14 10 23 15 15 15 18 -4 44 -27 36
-18 63 18 56 23 -4 25 -2 20 19 -6 22 -3 24 32 24 25 0 45 7 55 18 16 18 15
18 -38 14 -34 -3 -55 -1 -55 6 0 14 25 22 72 22 91 0 146 78 102 145 -18 27
-44 34 -44 11 0 -34 -82 -60 -108 -34 -14 14 -16 57 -3 77 7 11 10 9 16 -8 7
-24 51 -39 74 -24 31 19 41 55 34 129 -4 46 -2 78 6 92 16 30 23 28 9 -2z
m2600 2 c-6 -18 -28 -21 -28 -4 0 9 7 16 16 16 9 0 14 -5 12 -12z m1860 -94
c-2 -63 1 -86 15 -107 24 -38 71 -37 91 1 15 28 16 28 31 -24 6 -21 -25 -54
-51 -54 -15 0 -38 12 -55 30 -33 32 -51 31 -68 -6 -18 -41 -13 -64 23 -100 29
-29 41 -34 79 -34 51 0 77 -7 77 -22 0 -7 -21 -9 -55 -6 -53 4 -54 4 -38 -14
10 -12 30 -18 56 -18 36 0 39 -2 33 -24 -5 -20 -3 -23 19 -18 33 6 41 -17 20
-58 -13 -25 -14 -34 -4 -46 6 -8 9 -17 6 -20 -13 -13 -44 8 -68 45 -15 25 -27
35 -31 27 -5 -7 -8 -6 -8 4 0 30 -58 137 -88 162 -17 14 -34 39 -38 54 -10 41
-49 116 -78 152 -33 38 -34 53 -1 22 l25 -24 28 21 c15 11 32 31 39 44 31 65
35 78 28 100 -5 19 -4 21 4 9 7 -8 10 -50 9 -96z m-2343 66 c3 -5 1 -10 -4
-10 -6 0 -11 5 -11 10 0 6 2 10 4 10 3 0 8 -4 11 -10z m225 0 c0 -5 -5 -10
-11 -10 -5 0 -7 5 -4 10 3 6 8 10 11 10 2 0 4 -4 4 -10z m-1675 -102 c83 -18
147 -52 211 -111 212 -196 219 -568 15 -773 -94 -95 -204 -145 -360 -165 -149
-19 -345 21 -461 95 l-55 35 47 1 c26 0 69 5 96 10 63 14 105 0 100 -33 -2
-14 -9 -21 -21 -21 -20 2 -23 -26 -5 -44 7 -7 25 -12 40 -12 68 0 94 90 38
132 -32 24 -37 43 -18 83 11 24 14 25 57 18 117 -20 263 10 343 72 165 125
135 415 -50 498 -53 23 -139 26 -206 7 -123 -34 -183 -188 -116 -298 56 -92
199 -106 269 -27 26 30 31 44 31 86 0 45 -4 55 -35 86 -33 33 -39 35 -80 31
-61 -7 -92 -30 -105 -78 -8 -31 -7 -47 4 -75 17 -39 12 -43 -23 -19 -27 19
-51 72 -51 111 0 43 41 105 85 130 56 32 164 32 220 0 130 -73 162 -259 64
-371 -58 -66 -133 -99 -239 -104 -69 -3 -95 0 -141 17 -108 41 -181 130 -215
262 -39 153 28 315 170 406 99 64 244 83 391 51z m3406 -7 c283 -89 371 -429
164 -637 -90 -91 -218 -117 -357 -74 -123 38 -191 124 -191 240 0 73 16 119
59 169 86 102 281 94 341 -14 37 -66 25 -142 -29 -179 -29 -20 -44 -21 -28 -1
19 23 18 97 -2 128 -23 34 -85 54 -130 41 -45 -13 -78 -65 -78 -122 0 -38 5
-50 38 -82 82 -82 224 -54 273 54 51 113 -6 238 -126 276 -58 19 -155 15 -207
-8 -129 -57 -192 -229 -138 -375 56 -150 246 -231 451 -191 20 4 28 -1 39 -23
18 -37 14 -54 -21 -81 -54 -44 -28 -132 39 -132 15 0 33 5 40 12 18 18 15 46
-5 44 -12 0 -19 7 -21 21 -5 34 36 46 107 33 31 -5 74 -11 96 -13 l40 -2 -55
-32 c-127 -75 -308 -112 -459 -94 -298 37 -487 226 -508 507 -18 256 135 485
362 540 81 20 233 17 306 -5z m603 -237 c11 -82 6 -237 -10 -304 -20 -86 -83
-213 -135 -273 -56 -64 -109 -91 -168 -84 -25 3 -71 9 -102 13 -50 6 -59 4
-78 -15 -27 -27 -24 -51 7 -67 20 -10 21 -13 7 -24 -20 -16 -62 -5 -76 21 -16
30 -3 67 31 88 17 10 27 21 24 24 -4 4 -2 13 5 20 9 11 8 17 -3 26 -28 23 -26
49 6 62 24 10 31 9 41 -4 7 -9 24 -19 40 -23 23 -5 27 -3 27 16 0 20 2 20 31
-9 36 -36 71 -48 102 -33 21 9 21 10 -8 17 -58 15 -65 29 -60 118 6 92 8 97
38 97 20 -1 20 -2 5 -11 -25 -14 -22 -55 4 -73 28 -20 58 -20 86 0 25 17 26
16 12 -20 -13 -36 -67 -36 -109 0 -32 27 -44 19 -13 -9 29 -27 73 -39 103 -28
23 8 31 5 50 -15 12 -13 26 -24 29 -24 4 0 10 23 12 52 3 29 11 54 17 56 43
14 53 68 21 120 -25 40 -25 45 -2 33 25 -13 46 2 39 29 -3 12 1 37 9 55 19 47
18 54 -11 67 -14 6 -25 17 -25 25 0 7 -5 13 -11 13 -8 0 -7 5 1 15 10 12 10
19 2 27 -8 8 -4 18 16 38 15 15 30 28 33 29 4 0 9 -20 13 -45z m-4647 -82 c1
-48 10 -119 21 -159 l18 -72 -23 -6 c-16 -4 -23 -13 -23 -30 0 -18 4 -23 15
-19 23 9 18 -22 -6 -39 -13 -10 -30 -12 -47 -8 -25 7 -44 31 -24 31 5 0 15 14
22 30 11 27 10 33 -6 51 -13 14 -25 18 -43 14 l-24 -6 6 64 c7 72 40 156 81
205 15 17 29 32 29 32 1 0 3 -39 4 -88z m4468 -24 c17 -37 30 -87 33 -126 5
-60 3 -65 -13 -58 -21 8 -65 -18 -65 -38 0 -7 9 -25 21 -40 11 -14 18 -30 15
-35 -10 -16 -55 -18 -76 -4 -24 17 -27 45 -4 41 10 -2 19 2 21 8 6 17 -27 46
-44 39 -11 -4 -13 -1 -8 12 17 41 35 134 41 216 l7 88 22 -21 c13 -12 35 -49
50 -82z m-3375 -40 c0 -18 -2 -20 -9 -8 -6 8 -7 18 -5 22 9 14 14 9 14 -14z
m60 6 c0 -8 -5 -12 -10 -9 -6 4 -8 11 -5 16 9 14 15 11 15 -7z m17 -96 c-2
-24 -4 -7 -4 37 0 44 2 63 4 43 2 -21 2 -57 0 -80z m38 82 c-8 -16 -15 -38
-15 -50 0 -12 7 -34 15 -50 9 -18 11 -30 5 -30 -15 0 -30 45 -30 90 0 48 8 70
26 70 12 0 12 -5 -1 -30z m170 10 c11 -12 18 -35 18 -60 0 -59 -23 -80 -90
-80 -67 0 -93 22 -93 80 0 58 26 80 93 80 41 0 58 -5 72 -20z m43 -30 c5 -61
-6 -110 -23 -110 -12 0 -12 4 1 28 18 35 18 66 -2 103 -14 29 -14 31 3 27 14
-2 19 -14 21 -48z m47 -30 c0 -44 -3 -80 -7 -80 -5 0 -8 36 -8 80 0 44 3 80 8
80 4 0 7 -36 7 -80z m64 53 c0 -25 -1 -26 -9 -8 -12 27 -12 35 0 35 6 0 10
-12 9 -27z m71 18 c0 -6 -4 -13 -10 -16 -5 -3 -10 -28 -10 -55 0 -27 5 -52 10
-55 15 -9 12 -25 -4 -25 -21 0 -36 104 -20 144 7 17 34 22 34 7z m191 -10 c32
-26 32 -96 -1 -123 -34 -28 -146 -25 -177 4 -29 27 -30 76 -2 112 18 24 27 26
89 26 52 0 73 -4 91 -19z m52 -36 c9 -53 -3 -105 -24 -105 -7 0 -8 7 -4 18 16
41 16 80 0 111 -16 31 -16 33 2 29 13 -2 20 -17 26 -53z m27 -32 c0 -34 -3
-64 -7 -66 -5 -3 -8 30 -8 73 0 43 3 73 7 67 4 -7 8 -40 8 -74z m29 80 c0 -5
-4 -17 -9 -28 -8 -18 -9 -17 -9 8 -1 15 4 27 9 27 6 0 10 -3 9 -7z m47 -92
c-7 -43 -23 -62 -36 -41 -14 21 -12 97 2 123 11 21 12 21 26 -13 8 -20 12 -49
8 -69z m11 77 c-3 -8 -6 -5 -6 6 -1 11 2 17 5 13 3 -3 4 -12 1 -19z m32 -60
c-1 -80 -2 -81 -10 -33 -8 44 -3 115 7 115 2 0 3 -37 3 -82z m46 52 c-19 -36
-19 -67 -1 -102 14 -26 13 -28 -3 -28 -22 0 -31 27 -31 96 0 56 4 64 32 64 17
0 18 -2 3 -30z m291 9 c11 -13 19 -35 19 -59 0 -24 -8 -46 -19 -59 -17 -19
-30 -21 -137 -21 -117 0 -119 0 -136 26 -21 33 -20 89 3 115 15 17 31 19 134
19 106 0 119 -2 136 -21z m52 -56 c-3 -66 -6 -78 -21 -81 -16 -3 -18 0 -11 20
11 29 11 86 1 116 -7 18 -5 22 13 22 20 0 21 -4 18 -77z m30 2 c0 -22 -4 -51
-8 -65 -5 -17 -8 3 -8 60 0 56 2 78 8 65 5 -11 8 -38 8 -60z m19 53 c-3 -8 -6
-5 -6 6 -1 11 2 17 5 13 3 -3 4 -12 1 -19z m53 -57 c0 -49 -12 -77 -28 -67
-17 10 -22 67 -11 110 10 38 12 39 25 21 8 -10 14 -39 14 -64z m19 52 c0 -25
-1 -26 -9 -8 -12 27 -12 35 0 35 6 0 10 -12 9 -27z m26 -52 c0 -43 -3 -74 -7
-68 -13 21 -8 147 6 147 1 0 1 -36 1 -79z m40 49 c-8 -16 -15 -38 -15 -50 0
-12 7 -34 15 -50 14 -26 14 -30 1 -30 -22 0 -27 14 -27 80 -1 65 5 80 27 80
13 0 13 -4 -1 -30z m205 8 c12 -14 20 -35 20 -58 0 -60 -27 -80 -110 -80 -87
0 -110 17 -110 84 0 61 23 76 112 76 56 0 71 -4 88 -22z m48 -18 c6 -55 -7
-120 -24 -120 -17 0 -18 12 -3 27 7 7 12 30 12 53 0 23 -5 46 -12 53 -16 16
-13 29 7 25 11 -2 18 -14 20 -38z m51 33 c0 -5 -4 -17 -9 -28 -8 -18 -9 -17
-9 8 -1 15 4 27 9 27 6 0 10 -3 9 -7z m61 -73 c0 -44 -3 -80 -7 -80 -5 0 -8
36 -8 80 0 44 3 80 8 80 4 0 7 -36 7 -80z m55 50 c-8 -16 -15 -38 -15 -50 0
-12 7 -34 15 -50 13 -26 13 -30 1 -30 -9 0 -16 16 -21 50 -8 60 1 110 21 110
12 0 12 -4 -1 -30z m162 15 c25 -18 34 -59 21 -97 -13 -36 -35 -48 -92 -48
-59 0 -86 25 -86 78 0 61 22 82 83 82 30 0 62 -6 74 -15z m48 -62 c0 -39 -3
-75 -7 -79 -15 -14 -16 1 -5 43 9 36 8 48 -6 78 -17 35 -17 36 0 33 15 -3 18
-15 18 -75z m22 -45 c-2 -24 -4 -5 -4 42 0 47 2 66 4 43 2 -24 2 -62 0 -85z
m25 100 c-7 -7 -12 -8 -12 -2 0 14 12 26 19 19 2 -3 -1 -11 -7 -17z m68 7 c0
-8 -4 -15 -10 -15 -5 0 -10 7 -10 15 0 8 5 15 10 15 6 0 10 -7 10 -15z m-2186
-11 c8 -20 8 -72 0 -101 -11 -41 -24 -13 -24 53 0 61 11 83 24 48z m380 0 c9
-24 7 -97 -4 -114 -13 -20 -21 -9 -27 39 -9 65 14 120 31 75z m48 -72 c2 -28
0 -52 -4 -52 -5 0 -7 33 -7 73 2 76 6 68 11 -21z m1285 -19 c-2 -21 -4 -4 -4
37 0 41 2 58 4 38 2 -21 2 -55 0 -75z m67 91 c9 -24 7 -97 -4 -114 -13 -20
-21 -9 -27 39 -9 65 14 120 31 75z m379 -16 c6 -41 -3 -108 -14 -108 -13 0
-22 66 -15 105 9 44 22 45 29 3z m-1846 -60 c-2 -18 -4 -6 -4 27 0 33 2 48 4
33 2 -15 2 -42 0 -60z m1510 5 c-2 -16 -4 -3 -4 27 0 30 2 43 4 28 2 -16 2
-40 0 -55z m1643 -128 c0 -7 -12 -22 -26 -32 -18 -13 -27 -31 -31 -61 -6 -44
-11 -50 -31 -30 -17 17 -15 58 5 80 15 17 15 18 -14 18 -34 0 -56 20 -51 47 4
24 39 29 54 8 11 -14 13 -13 19 14 3 16 3 52 -1 78 l-7 48 42 -78 c22 -43 41
-84 41 -92z m-3060 89 c0 -14 -4 -23 -9 -20 -5 3 -7 15 -4 26 7 28 13 25 13
-6z m966 -22 c-11 -10 -15 4 -8 28 l7 25 3 -23 c2 -13 1 -26 -2 -30z m373 6
c1 -5 -3 -8 -9 -8 -5 0 -10 12 -9 28 0 24 1 25 9 7 5 -11 9 -23 9 -27z m-1723
-5 c-11 -11 -17 4 -9 23 7 18 8 18 11 1 2 -10 1 -21 -2 -24z m754 5 c0 -5 -4
-8 -10 -8 -5 0 -10 10 -10 23 0 18 2 19 10 7 5 -8 10 -18 10 -22z m70 0 c0 -5
-4 -8 -10 -8 -5 0 -10 10 -10 23 0 18 2 19 10 7 5 -8 10 -18 10 -22z m460 11
c0 -11 -4 -18 -10 -14 -5 3 -7 12 -3 20 7 21 13 19 13 -6z m820 -11 c0 -5 -4
-8 -10 -8 -5 0 -10 10 -10 23 0 18 2 19 10 7 5 -8 10 -18 10 -22z m50 -33 c0
-13 -130 -15 -1110 -15 -610 0 -1110 4 -1110 8 0 5 3 12 7 15 3 4 503 7 1110
7 974 0 1103 -2 1103 -15z m-3252 -66 c3 -30 -2 -41 -29 -63 -43 -37 -99 -34
-110 5 -6 26 -6 26 20 13 34 -18 51 -18 79 2 26 18 29 59 5 74 -16 9 -15 10 7
8 21 -3 25 -9 28 -39z m3256 -4 c5 -27 2 -39 -14 -55 -54 -54 -55 -58 -58
-568 l-3 -472 -29 0 -30 0 0 454 c0 382 -2 460 -15 497 -50 142 -191 153 -257
20 -23 -46 -23 -50 -26 -508 l-3 -463 -30 0 -29 0 0 458 c0 508 0 507 -68 564
-68 57 -146 57 -213 1 -69 -58 -69 -57 -69 -565 l0 -458 -30 0 -30 0 0 443 c0
290 -4 456 -11 482 -16 56 -83 119 -144 134 -99 25 -198 -21 -240 -112 l-25
-52 0 -447 0 -448 -30 0 -30 0 0 458 c0 508 0 507 -68 564 -68 57 -146 57
-213 1 -69 -58 -69 -57 -69 -565 l0 -458 -30 0 -29 0 -3 463 c-3 461 -3 462
-26 509 -29 59 -74 93 -124 93 -50 0 -87 -29 -120 -95 l-28 -54 0 -458 0 -458
-30 0 -30 0 0 453 c0 491 -3 525 -54 580 -20 22 -24 34 -19 62 l6 35 1107 0
1108 0 6 -35z m1011 -12 c-18 -41 -15 -108 5 -135 15 -21 16 -26 5 -22 -8 4
-26 25 -40 48 l-25 41 -6 -33 c-7 -35 -19 -40 -44 -17 -16 15 -13 20 44 75 33
33 63 60 65 60 2 0 0 -8 -4 -17z m-2893 -55 c17 -11 39 -39 49 -62 17 -38 19
-74 19 -503 l0 -463 -135 0 -136 0 3 463 c3 455 3 463 25 504 44 81 113 106
175 61z m387 7 c39 -20 78 -69 91 -113 6 -23 10 -206 10 -479 l0 -443 -165 0
-165 0 0 448 c1 469 3 495 47 544 49 56 124 73 182 43z m470 -5 c48 -24 87
-70 101 -118 6 -23 10 -204 10 -474 l0 -438 -200 0 -200 0 0 428 c0 257 5 445
11 472 28 123 166 188 278 130z m462 -27 c20 -22 42 -58 48 -79 7 -25 11 -196
11 -481 l0 -443 -165 0 -165 0 0 438 c0 453 3 490 43 545 35 50 75 69 136 64
48 -3 58 -8 92 -44z m358 13 c59 -61 61 -82 61 -573 l0 -443 -135 0 -135 0 0
451 c0 495 1 510 57 566 28 27 41 33 76 33 36 0 49 -6 76 -34z m-1989 -31 l25
-49 3 -468 3 -468 -105 0 -106 0 0 395 0 395 34 48 c37 51 96 168 96 190 0 27
25 5 50 -43z m2229 -5 c12 -33 42 -90 67 -126 l44 -67 0 -393 0 -394 -106 0
-105 0 3 462 c4 478 5 492 46 556 8 12 18 22 22 22 4 0 17 -27 29 -60z m-2419
-595 c0 -250 -4 -385 -10 -385 -6 0 -10 135 -10 385 0 250 4 385 10 385 6 0
10 -135 10 -385z m2560 0 c0 -250 -4 -385 -10 -385 -6 0 -10 135 -10 385 0
250 4 385 10 385 6 0 10 -135 10 -385z m-2591 -15 l0 -370 -89 0 -90 0 0 318
0 319 38 17 c20 9 57 32 82 51 25 18 48 34 52 34 4 1 8 -165 7 -369z m2665
331 c31 -21 69 -44 86 -51 l30 -12 0 -319 0 -319 -85 0 -85 0 -2 370 c-2 204
-2 370 -1 370 1 0 27 -17 57 -39z m-2854 -386 c0 -273 -2 -315 -15 -315 -13 0
-15 41 -15 308 0 170 3 312 7 315 3 4 10 7 15 7 4 0 8 -142 8 -315z m3010 -6
c0 -240 -3 -309 -12 -309 -11 0 -14 259 -8 628 0 2 5 0 10 -3 6 -4 10 -120 10
-316z m-3050 -4 l0 -305 -35 0 -35 0 0 299 c0 325 -3 306 53 310 16 1 17 -20
17 -304z m3108 299 l22 -6 0 -299 0 -299 -30 0 -29 0 -3 305 c-2 199 0 305 7
305 6 0 20 -3 33 -6z m-3188 -309 c0 -190 -4 -295 -10 -295 -6 0 -10 105 -10
295 0 190 4 295 10 295 6 0 10 -105 10 -295z m3249 0 c-3 -234 -6 -295 -16
-295 -10 0 -13 60 -13 295 0 261 2 295 16 295 14 0 15 -33 13 -295z"/>
<path d="M1721 2139 c-28 -20 -41 -35 -37 -45 3 -8 2 -13 -3 -10 -4 3 -13 -10
-19 -29 -14 -47 -2 -44 26 5 12 22 36 56 53 75 38 43 34 44 -20 4z"/>
<path d="M2464 2195 c28 -26 28 -28 22 -104 -6 -69 -5 -80 14 -104 28 -35 89
-38 121 -6 19 19 20 28 14 104 -7 76 -5 85 14 104 12 12 17 21 13 21 -5 0 -17
-9 -27 -20 -15 -17 -17 -30 -11 -99 7 -72 5 -82 -13 -100 -27 -27 -75 -27
-102 0 -18 18 -19 28 -13 89 8 87 2 113 -33 129 l-28 13 29 -27z"/>
<path d="M3384 2128 c22 -26 44 -44 49 -41 6 3 7 1 3 -5 -7 -12 13 -62 26 -62
11 0 10 5 -6 45 -17 40 -39 64 -81 91 -29 18 -28 17 9 -28z"/>
</g>
</svg>
